<?xml version="1.0" standalone="no"?>
<!DOCTYPE svg PUBLIC "-//W3C//DTD SVG 20010904//EN"
 "http://www.w3.org/TR/2001/REC-SVG-20010904/DTD/svg10.dtd">
<svg version="1.0" xmlns="http://www.w3.org/2000/svg"
 width="700.000000pt" height="700.000000pt" viewBox="0 0 700.000000 700.000000"
 preserveAspectRatio="xMidYMid meet">
<metadata>
Created by potrace 1.11, written by Peter Selinger 2001-2013
</metadata>
<g transform="translate(0.000000,700.000000) scale(0.100000,-0.100000)"
fill="#000000" stroke="none">
<path d="M1750 6675 c-7 -9 -302 -719 -520 -1250 -18 -44 -41 -99 -51 -122
-11 -24 -19 -45 -19 -48 0 -4 -8 -25 -19 -48 -10 -23 -47 -109 -81 -192 -34
-82 -120 -292 -191 -465 -72 -173 -134 -324 -139 -335 -5 -11 -55 -130 -110
-265 -55 -135 -105 -254 -109 -265 -5 -11 -16 -38 -26 -60 -9 -22 -20 -49 -25
-60 -8 -18 -109 -263 -296 -720 -41 -99 -78 -189 -84 -200 -5 -11 -18 -42 -29
-70 -11 -27 -27 -67 -35 -88 l-16 -37 358 0 358 0 68 173 c37 94 92 235 122
312 30 77 59 149 64 160 5 11 25 63 45 115 20 52 43 109 51 127 7 17 14 37 14
45 0 7 6 21 13 30 12 15 85 16 976 15 l963 -2 60 -150 c33 -82 66 -163 73
-180 7 -16 29 -73 50 -125 21 -52 43 -108 50 -125 7 -16 45 -112 85 -212 l72
-183 359 0 358 0 -13 32 c-87 208 -254 613 -317 768 -44 107 -87 209 -94 225
-7 17 -34 80 -58 140 -62 152 -144 350 -301 728 -73 177 -186 450 -250 607
-65 157 -123 299 -131 315 -7 17 -111 266 -230 555 -331 803 -348 844 -357
855 -12 14 -627 14 -638 0z m345 -861 c14 -31 25 -61 25 -66 0 -6 7 -24 15
-41 13 -29 145 -361 330 -832 36 -93 120 -305 186 -471 65 -166 119 -306 119
-313 0 -7 -24 -11 -67 -11 -335 -2 -1335 -1 -1338 2 -1 2 101 264 227 583 332
842 427 1083 451 1147 12 32 23 58 25 58 1 0 13 -25 27 -56z"/>
<path d="M6425 3782 c-104 -100 -420 -400 -465 -442 -19 -18 -113 -107 -209
-199 -96 -91 -191 -182 -211 -201 -21 -19 -113 -107 -206 -196 -93 -89 -187
-178 -209 -198 -22 -21 -112 -107 -200 -191 -88 -84 -176 -167 -195 -185 -30
-28 -285 -270 -415 -395 -23 -22 -108 -103 -190 -180 -236 -224 -249 -237
-313 -297 -33 -32 -63 -58 -67 -58 -4 0 -35 27 -69 59 -33 33 -81 79 -106 102
-25 23 -126 119 -224 213 -98 94 -196 187 -216 206 -20 19 -119 114 -220 210
-101 96 -206 197 -234 224 -28 26 -82 78 -119 114 l-68 65 -32 -30 c-18 -17
-79 -75 -136 -129 -58 -55 -152 -145 -210 -201 l-106 -101 45 -42 c25 -23 115
-109 200 -190 85 -81 173 -165 195 -185 42 -40 315 -300 415 -395 77 -73 341
-324 388 -368 20 -19 115 -110 211 -201 240 -229 285 -271 293 -268 7 2 162
149 484 456 196 187 428 407 475 452 41 39 331 315 429 409 20 19 108 103 195
185 87 83 179 170 205 195 197 187 390 371 420 400 46 44 359 342 415 395 23
22 114 108 201 191 88 84 179 171 204 194 25 23 84 79 131 125 l87 83 -23 23
c-12 13 -96 94 -185 179 -90 85 -186 176 -213 203 -27 26 -54 47 -61 47 -6 0
-47 -35 -91 -78z"/>
</g>
</svg>
