<?xml version="1.0" standalone="no"?>
<!DOCTYPE svg PUBLIC "-//W3C//DTD SVG 20010904//EN"
 "http://www.w3.org/TR/2001/REC-SVG-20010904/DTD/svg10.dtd">
<svg version="1.0" xmlns="http://www.w3.org/2000/svg"
 width="2880.000000pt" height="2880.000000pt" viewBox="0 0 2880.000000 2880.000000"
 preserveAspectRatio="xMidYMid meet">
<metadata>
Created by potrace 1.11, written by Peter Selinger 2001-2013
</metadata>
<g transform="translate(0.000000,2880.000000) scale(0.100000,-0.100000)"
fill="#000000" stroke="none">
<path d="M13979 28796 c-2 -2 -53 -6 -114 -10 -146 -8 -418 -38 -550 -62 -30
-5 -186 -33 -216 -39 -756 -145 -1558 -498 -2169 -954 -41 -31 -84 -63 -95
-73 -11 -9 -47 -38 -81 -65 -417 -332 -835 -807 -1126 -1283 -123 -201 -277
-501 -358 -695 -22 -55 -45 -109 -49 -120 -129 -302 -288 -875 -331 -1190 -6
-44 -15 -102 -20 -130 -9 -48 -18 -108 -24 -150 -2 -11 -6 -33 -9 -50 -3 -16
-9 -48 -12 -70 -3 -22 -8 -55 -11 -72 l-6 -33 -3072 0 c-2966 -1 -3168 -2
-3266 -15 -25 -4 -61 -9 -80 -11 -176 -24 -383 -74 -555 -134 -83 -29 -297
-121 -315 -135 -8 -7 -26 -16 -40 -20 -14 -4 -44 -21 -67 -36 -23 -16 -45 -29
-48 -29 -4 0 -59 -35 -123 -77 -353 -232 -656 -553 -873 -923 -48 -83 -132
-252 -144 -290 -4 -14 -12 -30 -17 -37 -5 -6 -13 -24 -18 -40 -5 -15 -18 -53
-29 -83 -43 -112 -105 -348 -125 -475 -9 -60 -18 -121 -26 -190 -4 -38 -9
-1602 -9 -3475 l-1 -3406 92 -31 c51 -18 206 -71 343 -118 138 -47 282 -97
320 -110 39 -13 196 -67 350 -120 368 -127 587 -202 655 -225 30 -10 174 -60
320 -110 146 -51 407 -140 580 -200 173 -59 434 -149 580 -200 146 -50 310
-106 365 -125 55 -19 199 -68 320 -110 216 -75 443 -153 860 -295 116 -39 219
-75 230 -80 11 -5 70 -25 130 -45 122 -42 252 -86 685 -235 162 -56 313 -108
335 -115 22 -8 153 -52 290 -100 138 -48 275 -95 305 -105 30 -10 174 -60 320
-110 146 -50 355 -122 465 -160 110 -37 319 -109 465 -160 146 -50 297 -102
335 -115 39 -13 183 -63 320 -110 404 -140 596 -206 655 -225 30 -11 161 -55
290 -100 129 -45 312 -108 405 -140 94 -32 303 -104 465 -160 162 -56 340
-117 395 -135 55 -19 185 -64 289 -100 103 -36 192 -65 197 -65 5 0 9 315 9
733 0 596 3 743 14 792 50 211 194 375 401 456 33 13 30 12 95 28 32 7 793 10
2545 8 2772 -3 2514 4 2656 -67 179 -91 304 -258 339 -454 6 -38 10 -326 10
-793 0 -403 2 -733 4 -733 2 0 102 34 222 75 121 42 264 91 319 109 55 19 219
76 365 126 146 51 290 100 320 110 30 10 181 61 335 115 572 197 916 316 1025
352 41 13 84 29 95 33 11 5 119 43 240 84 121 40 234 79 250 86 17 7 44 16 60
21 17 4 68 21 115 37 195 68 708 245 745 257 22 8 132 46 245 85 113 39 243
84 290 100 47 15 204 70 350 120 146 50 303 104 350 120 47 16 153 52 235 81
349 120 585 202 665 229 47 16 211 72 365 125 389 134 868 299 1135 390 124
42 232 79 240 82 24 9 344 120 485 168 181 61 347 119 655 225 146 51 283 98
305 105 42 14 132 45 565 195 146 50 292 100 325 111 131 45 708 243 830 286
72 25 135 46 140 48 6 1 24 7 40 14 17 6 36 14 43 16 10 4 12 664 9 3442 -2
1891 -7 3458 -11 3483 -50 316 -74 424 -134 600 -51 148 -71 196 -128 317
-183 380 -477 741 -819 1002 -22 17 -44 34 -50 39 -5 4 -35 23 -65 43 -30 20
-84 55 -120 78 -84 55 -338 179 -461 224 -170 64 -404 125 -539 142 -25 3 -56
8 -70 10 -54 9 -139 16 -220 20 -47 3 -1526 5 -3286 5 l-3202 0 -8 48 c-4 26
-9 54 -10 62 -1 8 -5 33 -9 55 -3 22 -8 51 -10 65 -13 82 -39 221 -60 330 -14
69 -27 134 -29 145 -10 51 -79 341 -83 347 -2 5 -6 16 -8 27 -7 36 -77 265
-116 377 -136 394 -333 803 -552 1144 -87 136 -101 156 -226 323 -219 292
-495 583 -776 817 -50 41 -92 77 -95 80 -11 13 -241 181 -330 242 -289 199
-691 410 -1032 544 -258 101 -665 224 -848 258 -14 2 -36 7 -50 10 -14 3 -38
8 -55 11 -16 4 -64 13 -105 20 -41 8 -107 19 -145 24 -39 6 -84 12 -100 15
-52 9 -188 25 -255 31 -36 4 -87 8 -115 11 -58 6 -691 14 -696 10z m451 -2091
c144 -6 184 -9 270 -21 25 -4 52 -8 60 -9 223 -30 565 -118 755 -194 272 -110
541 -255 740 -400 50 -36 95 -70 102 -76 6 -5 29 -23 50 -40 158 -125 341
-313 488 -500 192 -245 358 -545 471 -845 43 -116 98 -285 109 -334 2 -12 10
-46 18 -76 18 -69 36 -148 42 -180 3 -14 9 -48 15 -76 22 -107 22 -104 -2
-104 -40 -1 -6592 -2 -6607 -1 -10 1 -12 9 -7 34 9 40 13 63 20 107 10 64 17
92 56 244 35 141 88 315 109 361 5 11 19 47 32 80 12 33 48 115 80 182 266
566 671 1022 1206 1354 83 52 291 160 403 209 134 58 130 57 185 75 28 10 59
21 70 26 35 15 145 47 295 85 165 41 152 38 245 53 118 18 138 21 195 27 30 3
62 8 70 10 8 3 89 8 180 11 91 3 166 7 168 8 2 2 11 1 20 -1 9 -1 82 -6 162
-9z"/>
<path d="M1 8403 c1 -5015 3 -5826 15 -5938 48 -430 190 -831 420 -1191 202
-317 478 -600 779 -801 218 -145 436 -252 685 -336 74 -25 246 -71 305 -82
115 -21 221 -37 290 -43 44 -4 5417 -7 11940 -7 11447 0 11864 1 11969 18 59
10 116 20 126 22 10 2 35 6 56 9 22 4 57 12 79 18 22 6 45 12 50 14 6 1 39 9
75 19 97 25 174 52 267 91 17 8 34 14 37 14 17 0 276 131 370 188 517 309 937
811 1154 1377 32 85 99 298 107 343 2 15 13 70 24 122 11 52 22 122 26 155 3
33 9 74 13 90 10 49 13 11695 3 11695 -5 0 -53 -16 -108 -35 -54 -20 -105 -37
-113 -40 -8 -2 -134 -45 -280 -95 -146 -51 -335 -116 -420 -145 -85 -29 -288
-99 -450 -155 -162 -56 -443 -153 -625 -215 -181 -62 -456 -157 -610 -210
-154 -53 -356 -123 -450 -155 -93 -32 -231 -79 -305 -105 -157 -54 -407 -140
-465 -159 -22 -8 -159 -55 -305 -106 -146 -50 -341 -118 -435 -150 -93 -32
-237 -81 -320 -110 -82 -29 -168 -58 -190 -65 -22 -8 -98 -34 -170 -59 -71
-24 -267 -92 -435 -149 -168 -58 -444 -153 -615 -212 -170 -59 -386 -133 -480
-165 -171 -58 -378 -130 -620 -214 -153 -52 -652 -224 -880 -303 -88 -30 -212
-72 -275 -94 -63 -22 -146 -50 -185 -63 -38 -14 -189 -66 -335 -116 -241 -83
-753 -259 -1005 -345 -55 -19 -165 -58 -245 -86 -80 -28 -152 -52 -160 -54 -8
-2 -100 -34 -205 -70 -104 -37 -194 -68 -200 -69 -5 -2 -17 -6 -25 -9 -17 -7
-213 -75 -345 -119 -49 -16 -93 -33 -97 -37 -5 -4 -8 -736 -8 -1627 0 -1594
-1 -1621 -20 -1693 -35 -126 -89 -214 -190 -311 -45 -43 -167 -118 -199 -123
-9 -1 -20 -5 -26 -9 -51 -31 -121 -32 -2570 -33 -1342 0 -2467 3 -2500 7 -140
19 -268 81 -364 177 -96 97 -135 162 -170 292 -20 72 -21 96 -21 1708 0 899
-3 1638 -8 1642 -7 6 -34 16 -337 119 -93 32 -282 97 -420 145 -137 48 -281
97 -320 110 -38 13 -169 58 -290 100 -121 42 -260 89 -310 106 -49 17 -99 34
-110 39 -11 5 -96 34 -190 66 -93 31 -215 72 -270 91 -55 19 -172 60 -260 90
-88 30 -225 78 -305 105 -80 27 -221 76 -315 108 -93 32 -282 97 -420 145
-137 47 -295 101 -350 120 -55 18 -206 70 -335 115 -129 45 -260 90 -290 100
-73 25 -315 108 -640 220 -324 112 -567 195 -640 220 -30 10 -174 60 -320 110
-146 51 -355 123 -465 160 -110 38 -326 112 -480 165 -154 53 -307 106 -340
117 -33 11 -69 23 -80 28 -11 5 -121 43 -245 85 -410 140 -666 227 -1180 405
-146 50 -296 102 -335 115 -38 13 -131 45 -205 70 -172 60 -697 241 -770 265
-30 10 -167 58 -305 105 -137 48 -268 93 -290 100 -22 7 -152 52 -289 99 -137
47 -250 86 -252 86 -2 0 -4 -2613 -3 -5807z"/>
</g>
</svg>
