<?xml version="1.0" standalone="no"?><!-- Generator: Gravit.io --><svg xmlns="http://www.w3.org/2000/svg" xmlns:xlink="http://www.w3.org/1999/xlink" style="isolation:isolate" viewBox="0 0 800 800" width="800" height="800"><defs><clipPath id="_clipPath_2F6KGerRte4CqGd63MFmOQpn2MwQDh12"><rect width="800" height="800"/></clipPath></defs><g clip-path="url(#_clipPath_2F6KGerRte4CqGd63MFmOQpn2MwQDh12)"><path d=" M 58.679 0.348 L 400 41.089 L 741.321 0.348 C 773.707 -3.518 800 19.824 800 52.44 L 800 703.108 C 800 735.724 773.638 764.7 741.167 767.774 L 400 800.071 L 58.833 767.774 C 26.362 764.7 0 735.724 0 703.108 L 0 52.44 C 0 19.824 26.293 -3.518 58.679 0.348 Z " fill="rgb(35,107,96)"/><defs><filter id="iLpoqvLv9vG1ihhLEV1HKqAOjtWPGAy5" x="-200%" y="-200%" width="400%" height="400%"><feGaussianBlur xmlns="http://www.w3.org/2000/svg" stdDeviation="4.293609062839028"/></filter></defs><g filter="url(#iLpoqvLv9vG1ihhLEV1HKqAOjtWPGAy5)"><path d=" M 108.639 27.905 L 400.282 66.344 L 691.926 27.905 C 721.207 24.046 744.98 44.891 744.98 74.426 L 744.98 699.001 C 744.98 728.536 721.131 755.007 691.757 758.078 L 400.282 788.546 L 108.808 758.078 C 79.433 755.007 55.584 728.536 55.584 699.001 L 55.584 74.426 C 55.584 44.891 79.357 24.046 108.639 27.905 Z " fill="rgb(0,0,0)" fill-opacity="0.2"/></g><path d=" M 108.639 21.32 L 400.282 59.759 L 691.926 21.32 C 721.207 17.461 744.98 38.306 744.98 67.84 L 744.98 692.416 C 744.98 721.95 721.131 748.422 691.757 751.492 L 400.282 781.961 L 108.808 751.492 C 79.433 748.422 55.584 721.95 55.584 692.416 L 55.584 67.84 C 55.584 38.306 79.357 17.461 108.639 21.32 Z " fill="rgb(233,229,215)"/><defs><filter id="ld84hrx6IJCKtuXmWqtK7yab4YBsijxQ" x="-200%" y="-200%" width="400%" height="400%"><feGaussianBlur xmlns="http://www.w3.org/2000/svg" stdDeviation="4.293609062839028"/></filter></defs><g filter="url(#ld84hrx6IJCKtuXmWqtK7yab4YBsijxQ)"><path d=" M 401.674 778.659 L 194.462 749.02 C 166.458 745.014 143.723 720.208 143.723 693.659 L 143.723 68.709 C 143.723 42.16 166.337 24.531 194.191 29.366 L 399.375 64.979 L 401.674 778.659 Z " fill="rgb(0,0,0)" fill-opacity="0.2"/></g><path d=" M 399.942 781.952 L 192.73 751.884 C 164.727 747.82 141.991 722.654 141.991 695.721 L 141.991 61.719 C 141.991 34.786 164.605 16.901 192.459 21.806 L 397.643 57.936 L 399.942 781.952 Z " fill="rgb(228,222,205)"/><path d=" M 400 781.961 L 693.985 750.055 C 722.13 747.001 744.98 722.654 744.98 695.721 L 744.98 61.719 C 744.98 34.786 722.199 15.919 694.139 19.615 L 400 58.351 L 397.643 57.936 L 399.942 781.952 L 400 781.961 Z " fill="rgb(228,222,205)"/><defs><filter id="4Glp60dBsCo6xSkCvT0CnRVuw7JHy5j3" x="-200%" y="-200%" width="400%" height="400%"><feGaussianBlur xmlns="http://www.w3.org/2000/svg" stdDeviation="6.440413594258542"/></filter></defs><g filter="url(#4Glp60dBsCo6xSkCvT0CnRVuw7JHy5j3)"><path d=" M 608.597 396.737 L 478.568 520.367 L 419.58 464.13 L 396.918 485.677 L 478.728 563.461 L 631.259 418.284 L 608.597 396.737 Z  M 463.43 463.306 L 497.022 463.306 L 414.89 264.643 L 384.995 264.643 L 302.863 463.306 L 336.455 463.306 L 354.456 417.461 L 445.107 417.461 L 463.43 463.306 Z  M 366.674 386.9 L 399.945 302.544 L 433.216 386.9 L 366.674 386.9 Z " fill-rule="evenodd" fill="rgb(0,0,0)" fill-opacity="0.2"/></g><path d=" M 608.597 392.151 L 478.568 515.781 L 419.58 459.544 L 396.918 481.091 L 478.728 558.876 L 631.259 413.699 L 608.597 392.151 Z  M 463.43 458.721 L 497.022 458.721 L 414.89 260.058 L 384.995 260.058 L 302.863 458.721 L 336.455 458.721 L 354.456 412.876 L 445.107 412.876 L 463.43 458.721 Z  M 366.674 382.314 L 399.945 297.958 L 433.216 382.314 L 366.674 382.314 Z " fill-rule="evenodd" fill="rgb(255,255,255)"/><path d=" M 401.674 781.952 L 193.071 751.884 C 164.879 747.82 141.991 722.654 141.991 695.721 L 141.991 61.719 C 141.991 34.786 164.757 16.901 192.798 21.806 L 399.359 57.936 L 401.674 781.952 Z " fill="rgb(0,0,0)" fill-opacity="0.1"/><defs><filter id="NWKZWY14U6G9Raq7pBqMVnbLeaDl7Mp5" x="-200%" y="-200%" width="400%" height="400%"><feGaussianBlur xmlns="http://www.w3.org/2000/svg" stdDeviation="4.293609062839028"/></filter></defs><g filter="url(#NWKZWY14U6G9Raq7pBqMVnbLeaDl7Mp5)"><path d=" M 594.003 39.134 L 682.757 27.445 L 682.789 255.643 L 634.65 218.01 L 594 255.643 L 594.003 39.134 Z " fill="rgb(0,0,0)" fill-opacity="0.15"/></g><path d=" M 594.003 32.685 L 682.757 20.996 L 682.789 249.194 L 634.65 211.561 L 594 249.194 L 594.003 32.685 Z " fill="rgb(244,67,54)"/><defs><filter id="ShxXzT6VGiITA17wZb2tIT2ntlPZht1O" x="-200%" y="-200%" width="400%" height="400%"><feGaussianBlur xmlns="http://www.w3.org/2000/svg" stdDeviation="1.2880827188517086"/></filter></defs><g filter="url(#ShxXzT6VGiITA17wZb2tIT2ntlPZht1O)"><linearGradient id="_lgradient_1" x1="14.47042726212917%" y1="14.154043687009718%" x2="39.190740501599834%" y2="117.17768435585853%"><stop offset="0.8695652173913043%" stop-opacity="0.05" style="stop-color:rgb(0,0,0)"/><stop offset="98.26086956521739%" stop-opacity="0" style="stop-color:rgb(0,0,0)"/></linearGradient><path d=" M 400.077 781.952 L 693.985 750.055 C 722.13 747.001 744.98 722.654 744.98 695.721 L 744.98 398.737 L 400.649 58.265 L 400 58.351 L 400 781.952 L 400.077 781.952 Z " fill="url(#_lgradient_1)"/></g></g></svg>